# xmcd CD database file
#
# Track frame offsets:
#	150
#	28075
#	57534
#	89169
#	123868
#	145415
#	165498
#	196555
#	223201
#
# Disc length: 3340 seconds
#
# Revision: 0
# Processed by: cddbd v1.5.1PL0 Copyright (c) Steve Scherf et al.
# Submitted via: CDex 1.51
#
DISCID=840d0a09
DTITLE=Mike Murley and David Occhipinti - Duologue
DYEAR=2002
DGENRE=Jazz
TTITLE0=You Must Believe in Spring
TTITLE1=The Heather on the Hill
TTITLE2=Nest of the Loon
TTITLE3=David Leaves
TTITLE4=Early Thaw
TTITLE5=Segment
TTITLE6=Minas Mist
TTITLE7=Prairie
TTITLE8=Some Other Time
EXTD=YEAR: 2002
EXTT0=
EXTT1=
EXTT2=
EXTT3=
EXTT4=
EXTT5=
EXTT6=
EXTT7=
EXTT8=
PLAYORDER=
